<svg width="266" height="373" viewBox="0 0 266 373" fill="none" xmlns="http://www.w3.org/2000/svg">
<path d="M122.181 98.0632L110.915 86.797L51.2885 27.1706L-15.4964 93.9552L37.2563 146.708C25.2578 149.433 12.8525 150.979 0.0405884 150.979C-92.734 150.979 -167.938 75.7746 -167.938 -17C-167.938 -109.775 -92.734 -184.979 0.0405884 -184.979C92.8152 -184.979 168.019 -109.775 168.019 -17C168.019 16.189 158.217 46.9782 141.582 72.9682L212.027 143.413C245.867 98.7954 266 43.277 266 -17C266 -163.91 146.91 -283 -0.00012207 -283C-146.91 -283 -266 -163.91 -266 -17C-266 129.91 -146.91 249 -0.00012207 249C15.2928 249 30.2606 247.658 44.8621 245.177L-15.4964 305.535L51.2885 372.32L157.078 266.53L223.863 199.745L191.569 167.451L122.181 98.0632Z" fill="#2AB062"/>
</svg>
