<svg width="386" height="373" viewBox="0 0 386 373" fill="none" xmlns="http://www.w3.org/2000/svg">
<path d="M388.181 98.0632L376.915 86.797L317.288 27.1706L250.504 93.9552L303.256 146.708C291.258 149.433 278.853 150.979 266.041 150.979C173.266 150.979 98.062 75.7746 98.062 -17C98.062 -109.775 173.266 -184.979 266.041 -184.979C358.815 -184.979 434.019 -109.775 434.019 -17C434.019 16.189 424.217 46.9782 407.582 72.9682L478.027 143.413C511.867 98.7954 532 43.277 532 -17C532 -163.91 412.91 -283 266 -283C119.09 -283 0 -163.91 0 -17C0 129.91 119.09 249 266 249C281.293 249 296.261 247.658 310.862 245.177L250.504 305.535L317.288 372.32L423.078 266.53L489.863 199.745L457.569 167.451L388.181 98.0632Z" fill="#2AB062"/>
</svg>
