<svg width="28" height="28" viewBox="0 0 28 28" fill="none" xmlns="http://www.w3.org/2000/svg">
<g id="prime:arrow-right">
<path id="Vector" d="M12.8333 6.1251C12.9483 6.12456 13.0622 6.14698 13.1684 6.19105C13.2746 6.23513 13.3709 6.29997 13.4517 6.38176C13.6155 6.54583 13.7076 6.76822 13.7076 7.0001C13.7076 7.23197 13.6155 7.45437 13.4517 7.61843L7.07002 14.0001L13.4517 20.3818C13.6062 20.5476 13.6904 20.767 13.6864 20.9937C13.6824 21.2204 13.5906 21.4367 13.4302 21.597C13.2699 21.7573 13.0536 21.8491 12.827 21.8531C12.6003 21.8571 12.3809 21.773 12.215 21.6184L5.21501 14.6184C5.05116 14.4544 4.95912 14.232 4.95912 14.0001C4.95912 13.7682 5.05116 13.5458 5.21501 13.3818L12.215 6.38176C12.2958 6.29997 12.3921 6.23513 12.4983 6.19105C12.6045 6.14698 12.7184 6.12456 12.8333 6.1251Z" fill="white"/>
<path id="Vector_2" d="M5.83335 13.125L22.1667 13.125C22.3988 13.125 22.6213 13.2172 22.7854 13.3813C22.9495 13.5454 23.0417 13.7679 23.0417 14C23.0417 14.2321 22.9495 14.4546 22.7854 14.6187C22.6213 14.7828 22.3988 14.875 22.1667 14.875L5.83335 14.875C5.60129 14.875 5.37873 14.7828 5.21464 14.6187C5.05054 14.4546 4.95835 14.2321 4.95835 14C4.95835 13.7679 5.05054 13.5454 5.21464 13.3813C5.37873 13.2172 5.60129 13.125 5.83335 13.125Z" fill="white"/>
</g>
</svg>
