<svg width="28" height="28" viewBox="0 0 28 28" fill="none" xmlns="http://www.w3.org/2000/svg">
<g id="prime:arrow-right">
<path id="Vector" d="M15.1666 21.8749C15.0517 21.8754 14.9378 21.853 14.8316 21.8089C14.7254 21.7649 14.6291 21.7 14.5483 21.6182C14.3845 21.4542 14.2924 21.2318 14.2924 20.9999C14.2924 20.768 14.3845 20.5456 14.5483 20.3816L20.93 13.9999L14.5483 7.61824C14.3938 7.45237 14.3096 7.23298 14.3136 7.00629C14.3176 6.77961 14.4094 6.56333 14.5698 6.40301C14.7301 6.24269 14.9464 6.15086 15.173 6.14686C15.3997 6.14287 15.6191 6.22701 15.785 6.38157L22.785 13.3816C22.9488 13.5456 23.0409 13.768 23.0409 13.9999C23.0409 14.2318 22.9488 14.4542 22.785 14.6182L15.785 21.6182C15.7042 21.7 15.6079 21.7649 15.5017 21.8089C15.3955 21.853 15.2816 21.8754 15.1666 21.8749Z" fill="white"/>
<path id="Vector_2" d="M22.1666 14.875L5.83331 14.875C5.60125 14.875 5.37869 14.7828 5.21459 14.6187C5.0505 14.4546 4.95831 14.2321 4.95831 14C4.95831 13.7679 5.0505 13.5454 5.21459 13.3813C5.37869 13.2172 5.60125 13.125 5.83331 13.125L22.1666 13.125C22.3987 13.125 22.6213 13.2172 22.7854 13.3813C22.9495 13.5454 23.0416 13.7679 23.0416 14C23.0416 14.2321 22.9495 14.4546 22.7854 14.6187C22.6213 14.7828 22.3987 14.875 22.1666 14.875Z" fill="white"/>
</g>
</svg>
